<svg xmlns="http://www.w3.org/2000/svg" viewBox="0 0 64 64" width="64" height="64">
  <defs>
    <linearGradient id="eye" x1="0%" y1="0%" x2="100%" y2="100%">
      <stop offset="0%" style="stop-color:#2e7d32;stop-opacity:1" />
      <stop offset="100%" style="stop-color:#1b5e20;stop-opacity:1" />
    </linearGradient>
    <linearGradient id="body" x1="0%" y1="0%" x2="100%" y2="100%">
      <stop offset="0%" style="stop-color:#4caf50;stop-opacity:1" />
      <stop offset="100%" style="stop-color:#2e7d32;stop-opacity:1" />
    </linearGradient>
  </defs>
  
  <!-- Uatu the Watcher - Inspired by Marvel's Uatu -->
  
  <!-- Head -->
  <circle cx="32" cy="20" r="12" fill="url(#body)" stroke="#1b5e20" stroke-width="2"/>
  
  <!-- Eyes (watching) -->
  <circle cx="28" cy="18" r="3" fill="url(#eye)"/>
  <circle cx="36" cy="18" r="3" fill="url(#eye)"/>
  <circle cx="28" cy="18" r="1" fill="#fff"/>
  <circle cx="36" cy="18" r="1" fill="#fff"/>
  
  <!-- Body -->
  <ellipse cx="32" cy="45" rx="18" ry="12" fill="url(#body)" stroke="#1b5e20" stroke-width="2"/>
  
  <!-- Arms (extended for watching) -->
  <ellipse cx="15" cy="35" rx="4" ry="8" fill="url(#body)" stroke="#1b5e20" stroke-width="1" transform="rotate(-30 15 35)"/>
  <ellipse cx="49" cy="35" rx="4" ry="8" fill="url(#body)" stroke="#1b5e20" stroke-width="1" transform="rotate(30 49 35)"/>
  
  <!-- Legs -->
  <ellipse cx="25" cy="55" rx="3" ry="6" fill="url(#body)" stroke="#1b5e20" stroke-width="1"/>
  <ellipse cx="39" cy="55" rx="3" ry="6" fill="url(#body)" stroke="#1b5e20" stroke-width="1"/>
  
  <!-- Energy aura (watching power) -->
  <circle cx="32" cy="32" r="25" fill="none" stroke="#4caf50" stroke-width="1" opacity="0.3">
    <animate attributeName="opacity" values="0.3;0.6;0.3" dur="3s" repeatCount="indefinite"/>
  </circle>
  
  <!-- Scanning lines -->
  <line x1="7" y1="32" x2="57" y2="32" stroke="#4caf50" stroke-width="1" opacity="0.5">
    <animate attributeName="opacity" values="0.5;0.8;0.5" dur="2s" repeatCount="indefinite"/>
  </line>
  <line x1="32" y1="7" x2="32" y2="57" stroke="#4caf50" stroke-width="1" opacity="0.5">
    <animate attributeName="opacity" values="0.5;0.8;0.5" dur="2s" repeatCount="indefinite"/>
  </line>
</svg>
